PathFileType	4	(X/Y/Z)	7_coords_data.trc
DataRate	CameraRate	NumFrames	NumMarkers	Units	OrigDataRate	OrigDataStartFrame	OrigNumFrames
30.0	30.0	6	21	m	30.0	42	73
Frame#	Time	THUMB_TIP	THUMB_IP	THUMB_MCP	THUMB_CMC	INDEX_TIP	INDEX_DIP	INDEX_PIP	INDEX_MCP	MIDDLE_TIP	MIDDLE_DIP	MIDDLE_PIP	MIDDLE_MCP	RING_TIP	RING_DIP	RING_PIP	RING_MCP	PINKY_TIP	PINKY_DIP	PINKY_PIP	PINKY_MCP	WRIST
X1	Y1	Z1	X2	Y2	Z2	X3	Y3	Z3	X4	Y4	Z4	X5	Y5	Z5	X6	Y6	Z6	X7	Y7	Z7	X8	Y8	Z8	X9	Y9	Z9	X10	Y10	Z10	X11	Y11	Z11	X12	Y12	Z12	X13	Y13	Z13	X14	Y14	Z14	X15	Y15	Z15	X16	Y16	Z16	X17	Y17	Z17	X18	Y18	Z18	X19	Y19	Z19	X20	Y20	Z20	X21	Y21	Z21
40	1.3666666666666607	0.5098903556007731	-0.017871409253004455	-0.16327583367426246	0.49833743924815843	-0.02075651751775298	-0.14362370213465153	0.47558728040681575	-0.02532491453627994	-0.12287809967594265	0.4706333187891122	-0.029104494250398516	-0.07870726040980519	0.5723988438846213	0.026511445824127455	-0.1547789906886165	0.5559390990154498	0.02988919317262262	-0.14802120838289545	0.5330041815568751	0.0305719287524302	-0.13774826984047073	0.49832046122922247	0.015541180031736213	-0.11813316772173232	0.5965560675323079	0.034882784167902914	-0.12874553052305387	0.5796613087039055	0.03587632325520862	-0.12229727461838386	0.5522542752334587	0.03535764979475631	-0.11239802999107867	0.5120311234640281	0.02269797948233887	-0.09763392723086128	0.6014572027216297	0.016529827415008858	-0.10952340937157695	0.5854510396430026	0.01975498653873553	-0.10188134864641651	0.5628804163350798	0.022932419543860494	-0.09184885832796641	0.5246427931553515	0.01917751832451353	-0.07925895267311489	0.5974543699279881	-0.024229440386422385	-0.078764615139375	0.5825059096721485	-0.017287120821460333	-0.0741442542186751	0.5639222488341585	-0.009082330741985278	-0.06883944615331561	0.5305968438994146	0.0031039897378679626	-0.06237458497169235	0.462283081001861	-0.023011742144276925	-0.051989820119430985
41	1.3999999999999937	0.5101406395882667	-0.01716005484958749	-0.16303566709561396	0.49843994865900176	-0.02020540699285256	-0.14349546079933007	0.4756287750238175	-0.025073733583977798	-0.12288551772353251	0.47060651567446743	-0.02901289523228534	-0.07873633974096556	0.5716532850834666	0.024752227715071795	-0.15495439974801045	0.5553019254057652	0.028716433468589764	-0.1482523023573265	0.5323936566641718	0.03016990793096741	-0.138000060248882	0.49733135706432663	0.016173591929039888	-0.11829284382583327	0.5955285667907315	0.032024031200834635	-0.13030631199689446	0.5788044043478291	0.03387662860600649	-0.12360778429016933	0.5515592490867489	0.034652572879531496	-0.11328746572512383	0.5111778408469553	0.023452000511203552	-0.09779433924293907	0.6000893395569691	0.015372571872934282	-0.11078113477602547	0.5843275057733652	0.01911659777895869	-0.10287247712803843	0.5620265084093797	0.02306839637297553	-0.09251734393508332	0.5239116667166582	0.02018833059503411	-0.07933838730515574	0.5967574248602567	-0.02257223456848123	-0.08002200259279424	0.581945434830361	-0.015577093758074256	-0.07505481461599645	0.5634579036345648	-0.007390992719058409	-0.06939699179590991	0.5301042685387554	0.004375374824901468	-0.06232796981857569	0.4622830810018608	-0.023011742144276925	-0.051989820119430985
42	1.4333333333333271	0.5094840972432195	-0.01627203427796886	-0.16317685767192464	0.49776176435111497	-0.01946201820350424	-0.14367273210522702	0.47506403046017753	-0.024656957400379764	-0.12301733370778728	0.47031123882679426	-0.028852075552858847	-0.07886190419593248	0.5697217678705004	0.022672031451046903	-0.1560353168217813	0.553614424387403	0.027428733392591886	-0.1492583504977671	0.5308879742890021	0.029916256871835856	-0.1388022266526176	0.49565372033771804	0.01714279146784803	-0.11857793373371567	0.5933166733930391	0.028144830212697203	-0.1332392665257775	0.5769446668807829	0.031198674593398423	-0.12612368944017843	0.5501111224610198	0.0338003923659832	-0.11505113289237012	0.5098015780376637	0.024480745079766164	-0.09818599951483686	0.5976625844465054	0.013462727133176311	-0.11349055001416053	0.5823577569897229	0.01801978523960135	-0.10512421999839017	0.5605766322693071	0.023110373679483764	-0.09417668629214232	0.5228254837045372	0.021412142082351204	-0.07980005158567571	0.5953871188620448	-0.02094811495938742	-0.08288336963291565	0.5808834281738067	-0.013744666605494893	-0.07733780489767772	0.5626481528694742	-0.005462840407924441	-0.0710371614060617	0.5294169944774934	0.0058590845576095285	-0.06276748317762415	0.4622830810018608	-0.023011742144276925	-0.05198982011943104
43	1.4666666666666603	0.5075086872629242	-0.014963441904789043	-0.16385248998166285	0.4960002054767976	-0.018338842669106015	-0.14425245129142955	0.47366907142506776	-0.023858660304388546	-0.12328409262326273	0.46965673597296065	-0.028572976494465885	-0.07910755601071534	0.5664610360565264	0.020449745476503245	-0.15813146911329923	0.5507863523750847	0.026151480978641617	-0.1510749470414568	0.5284759171774336	0.02988864435408989	-0.14010736188351902	0.4933767500940851	0.018498045000201246	-0.11884850936475916	0.5895429221622047	0.0231922612808676	-0.13772196024035582	0.5738332096025156	0.027788377685438514	-0.12997078966504405	0.5478381625902984	0.03269514527474737	-0.11774006145053734	0.5080139707592868	0.0256763483251522	-0.09874221537822836	0.5939686323440039	0.01084535904145556	-0.11786812185871731	0.579421333861116	0.01647995215275455	-0.10883332981241794	0.55851662537222	0.022958098320701392	-0.09695028457051996	0.5214942448748365	0.0226151736910446	-0.0807038517618896	0.5933288627208685	-0.019512066968818575	-0.08750704867131659	0.5793407567104879	-0.011997404068874284	-0.08111465227070469	0.5615342629666642	-0.0035728928024491013	-0.07385046549770391	0.5286260831638581	0.007247077146456116	-0.0638073881122122	0.4622830810018609	-0.023011742144276925	-0.05198982011943093
44	1.4999999999999936	0.5042002660685143	-0.012910869734831354	-0.1649468077422172	0.49313667781559556	-0.016582592470180013	-0.14514490209845143	0.47143903252391395	-0.02246175462129807	-0.1236166034848305	0.4686570822113305	-0.028093367848541773	-0.07945286626845527	0.5619582794138115	0.0185304440910925	-0.16101221380219072	0.5469306741214046	0.025231516077776628	-0.15344473645469237	0.5253077010466677	0.03026326229446963	-0.1416490423920269	0.49070547035107615	0.020223498919243355	-0.11894386949555841	0.5840425017297761	0.01788880889225819	-0.14334489355708696	0.5694133469669285	0.024214380805422486	-0.13474402320019624	0.544795170360204	0.03158947720115568	-0.12099764608788882	0.5060036612921622	0.026945594122493643	-0.0993227505823564	0.5890247383292455	0.008046876736808484	-0.12362008205757058	0.5755906273071232	0.01483796650864877	-0.1137001142775777	0.5559462080775381	0.02272749949915842	-0.1005840157218344	0.5200565740434071	0.02362168034882528	-0.08198682659271495	0.5906492368151419	-0.01830166082371354	-0.09374043743251331	0.5773893043306038	-0.010485548900617592	-0.08625160675535648	0.5601875543951396	-0.0019439736671275076	-0.07776907702134506	0.5278269747241237	0.00824965231829422	-0.0655311718237564	0.4622830810018608	-0.023011742144276925	-0.05198982011943104
45	1.5333333333333266	0.49941456475429513	-0.009794481852069103	-0.16629406994202012	0.4890715084853269	-0.013948129521254349	-0.14620008083937486	0.4683327660833514	-0.02035107809205361	-0.12389028897158288	0.4673180036162822	-0.027379400263694897	-0.07985095491000738	0.5563795702929666	0.01750186186756053	-0.1643712890896697	0.5421854280437318	0.025093427838738913	-0.15607102090642794	0.5215052620496945	0.031254041706750946	-0.14317189674126396	0.487762695590956	0.022214958771275217	-0.11881270376482866	0.577098374940592	0.013463243828119698	-0.1494303647788347	0.563928857637308	0.021362550095871513	-0.13983011611086993	0.5411423921803721	0.030905059806484836	-0.12436638271939177	0.5038696334705967	0.02822237372066616	-0.09987776139176668	0.5831364120544316	0.005818838327160014	-0.1301721238507641	0.571107105017676	0.013601962224838782	-0.11923051726814343	0.5530179564098705	0.02264801270321648	-0.10470014726640675	0.5185775304631901	0.024365682788235477	-0.08359025612291032	0.5875040957103903	-0.017019087151207812	-0.101038188106915	0.5751259281688202	-0.009033442686486537	-0.09231979084618613	0.5586599304051841	-0.0005144624819035659	-0.08246535464101146	0.5270325855696176	0.008810260152985028	-0.06784878673214312	0.4622830810018608	-0.023011742144276925	-0.05198982011943093
